<svg width="67" height="53" viewBox="0 0 67 53" fill="none" xmlns="http://www.w3.org/2000/svg">
<g clip-path="url(#clip0_33_1387)">
<path d="M54.0353 4.55893C53.4159 4.05735 52.5745 3.85435 51.7533 4.08535L3.2014 17.744C2.38094 17.9748 1.76894 18.5875 1.50106 19.3379C1.32877 19.8216 1.29906 20.3624 1.44909 20.8957L9.53039 49.622C9.68042 50.1553 9.98796 50.602 10.3872 50.9249C11.007 51.4256 11.8485 51.6286 12.6689 51.3978L61.2208 37.7391C62.0413 37.5083 62.6533 36.8957 62.9214 36.146C63.0937 35.6623 63.1232 35.1207 62.9731 34.5874L54.8918 5.86116C54.7418 5.32787 54.4343 4.88113 54.0351 4.55823L54.0353 4.55893Z" fill="#F9F6ED"/>
<path d="M26.0359 29.4788L10.3874 50.9256C9.98819 50.6027 9.68065 50.156 9.53062 49.6227L1.44912 20.8957C1.2991 20.3624 1.32861 19.8209 1.5009 19.3372L26.0359 29.4788Z" fill="#F9F6ED"/>
<path d="M62.9216 36.1467C62.6537 36.8971 62.0415 37.509 61.221 37.7398L12.6691 51.3985C11.8487 51.6293 11.0072 51.4263 10.3874 50.9256L26.036 29.4795L32.0032 31.9454C32.9282 32.3286 33.9914 32.0295 34.5811 31.2202L38.3873 26.0049L62.9223 36.1465L62.9216 36.1467Z" fill="#EFECE4"/>
<path d="M54.0345 4.55912L38.3865 26.005L34.5803 31.2204C33.99 32.0299 32.9275 32.3288 32.0017 31.9458L26.0346 29.4799L1.50101 19.3379C1.76801 18.587 2.38021 17.975 3.20066 17.7442L51.7526 4.08555C52.573 3.85474 53.4147 4.05844 54.0338 4.55932L54.0345 4.55912Z" fill="#FCFAF2"/>
<path d="M54.8919 5.86116L62.9732 34.5874C63.1232 35.1207 63.0937 35.6623 62.9214 36.146L38.3864 26.0044L54.0353 4.55893C54.4352 4.88164 54.7419 5.32787 54.8921 5.86186L54.8919 5.86116Z" fill="#F9F6ED"/>
<path d="M39.2994 26.3818L38.8072 27.1064L35.0169 32.6868C34.429 33.5529 33.3485 33.8569 32.3953 33.4244L26.2514 30.6386L25.4536 30.2769L26.0361 29.4795L32.0032 31.9454C32.9283 32.3286 33.9915 32.0295 34.5811 31.2202L38.3873 26.0049L39.3001 26.3816L39.2994 26.3818Z" fill="#E1DED7"/>
<path d="M26.0359 29.4788L25.4534 30.2762L1.4787 19.4045C1.48587 19.3822 1.49304 19.3598 1.50091 19.3372L26.0359 29.4788Z" fill="#EFECE4"/>
<path d="M54.0892 4.60411L39.2994 26.3818L38.3866 26.005L54.0353 4.55893C54.0536 4.57339 54.0721 4.58856 54.0894 4.60481L54.0892 4.60411Z" fill="#EFECE4"/>
<path d="M33.048 21.6019C31.6297 20.8408 29.7811 21.2478 28.8132 22.5322C27.8449 23.8176 27.6752 25.7713 28.5182 27.1717C28.9288 27.8542 29.589 28.3601 30.348 28.5863C31.1494 28.8254 32.0254 28.7148 32.7545 28.3136C32.9432 28.21 33.1153 28.0823 33.28 27.944C33.387 27.8535 33.3663 27.6655 33.2727 27.5749C33.1627 27.4686 33.0131 27.4903 32.9061 27.5808C32.3622 28.0392 31.6224 28.2587 30.9166 28.1759C30.285 28.1017 29.6884 27.7823 29.2606 27.3098C28.3217 26.2736 28.2973 24.5691 28.9035 23.3667C29.2062 22.7664 29.6722 22.2921 30.278 22.0033C30.8616 21.7259 31.5581 21.6582 32.1839 21.8186C33.3646 22.1207 34.3716 23.2766 34.3131 24.5345C34.2991 24.8334 34.2144 25.1438 34.0315 25.3823C33.9318 25.5122 33.7901 25.6524 33.6269 25.6922C33.503 25.7226 33.4115 25.6872 33.3281 25.6142C33.1024 25.4159 33.0112 25.0916 32.9319 24.8047C32.9233 24.7739 32.9158 24.7421 32.9072 24.7113C32.881 24.3363 32.7838 23.9616 32.6562 23.6038C32.6449 23.5451 32.6335 23.4857 32.6229 23.4268C32.5986 23.2873 32.4273 23.2103 32.3024 23.2455C32.2407 23.2628 32.1955 23.2989 32.1649 23.3445C31.6335 23.1742 31.0403 23.3056 30.6122 23.6727C30.1442 24.0736 29.9304 24.7424 30.0007 25.3487C30.076 25.9995 30.4736 26.66 31.1668 26.7562C31.8189 26.8473 32.4355 26.4506 32.7103 25.8656C32.7294 25.8248 32.7469 25.7829 32.7629 25.7415C32.7992 25.7961 32.8365 25.849 32.8799 25.8994C33.1218 26.182 33.5029 26.3049 33.8538 26.1662C34.208 26.0258 34.4892 25.7084 34.6418 25.3622C35.2663 23.9428 34.3159 22.283 33.0466 21.6023L33.048 21.6019ZM32.4006 24.8206C32.4063 24.9902 32.3941 25.1596 32.3532 25.328C32.2458 25.7738 31.9346 26.1864 31.4547 26.2445C30.9822 26.302 30.6635 25.9301 30.5531 25.5033C30.4415 25.0693 30.5276 24.5533 30.8179 24.2069C31.1339 23.8299 31.6928 23.6591 32.1456 23.893C32.1605 23.9009 32.1747 23.9059 32.1893 23.9101C32.2499 24.2159 32.3209 24.5187 32.401 24.8197L32.4006 24.8206Z" fill="#CFCECE"/>
<path d="M57.0437 8.91316L49.5729 11.0148C48.527 11.3091 47.5675 10.3217 47.8818 9.27611L49.9647 2.3514C50.2547 1.38662 51.4413 1.05279 52.1924 1.72472L57.5802 6.54774C58.3943 7.27587 58.0896 8.61893 57.0437 8.91316Z" fill="#E94C31"/>
<path d="M52.5685 7.11063L52.4513 7.1436C52.4 7.15804 52.3465 7.1301 52.3286 7.08006L51.1387 3.79742C51.1186 3.74197 51.1493 3.68056 51.2061 3.66456L51.8171 3.49267C51.874 3.47667 51.932 3.51241 51.9439 3.5709L52.64 6.99245C52.6509 7.04445 52.6191 7.09639 52.5685 7.11063Z" fill="white"/>
<path d="M52.8887 8.47247C53.0978 8.41364 53.2193 8.19509 53.16 7.98432C53.1007 7.77356 52.8831 7.6504 52.674 7.70923C52.4648 7.76807 52.3434 7.98662 52.4026 8.19738C52.4619 8.40814 52.6795 8.53131 52.8887 8.47247Z" fill="white"/>
</g>
<defs>
<clipPath id="clip0_33_1387">
<rect width="58.139" height="37.7526" fill="white" transform="translate(0 15.7446) rotate(-15.7124)"/>
</clipPath>
</defs>
</svg>
